# xmcd CD database file
#
# Track frame offsets:
#	150
#	21852
#	35037
#	58162
#	77084
#	87671
#	103031
#	115913
#	135310
#	152467
#	167780
#	183429
#	205581
#	225211
#	250855
#	266952
#	281154
#
# Disc length: 3968 seconds
#
# Revision: 0
# Processed by: cddbd v1.5.1PL2 Copyright (c) Steve Scherf et al.
# Submitted via: Feurio! 1.68 - http://www.feurio.com
#
DISCID=e70f7e11
DTITLE=Duke Ellington - Sophisticated Lady
DYEAR=2002
DGENRE=Jazz
TTITLE0=Rockin' In Rythm
TTITLE1=Flamingo
TTITLE2=Bakiff
TTITLE3=Banquet
TTITLE4=Agra
TTITLE5=Bluebird Of Dehli
TTITLE6=Depk
TTITLE7=Flying Home
TTITLE8=Happy Reunion
TTITLE9=Take The 'A' Train
TTITLE10=Tulip Or Turnip
TTITLE11=Isfahan
TTITLE12=Jam With Sam
TTITLE13=Sophisticated Lady
TTITLE14=The Hawk Talks
TTITLE15=The Opener
TTITLE16=Satin Doll
EXTD=
EXTT0=
EXTT1=
EXTT2=
EXTT3=
EXTT4=
EXTT5=
EXTT6=
EXTT7=
EXTT8=
EXTT9=
EXTT10=
EXTT11=
EXTT12=
EXTT13=
EXTT14=
EXTT15=
EXTT16=
PLAYORDER=
